<svg xmlns="http://www.w3.org/2000/svg" id="Layer_1" viewBox="0 0 100 100">
  <style>
    .st0{stroke:#000;stroke-width:4;stroke-miterlimit:10}
  </style>
  <path d="M35.5 32.3l5.1 1.3c-1.1 4.2-3 7.4-5.8 9.6-2.8 2.2-6.2 3.3-10.2 3.3-4.2 0-7.5-.8-10.1-2.5s-4.6-4.1-5.9-7.3-2-6.6-2-10.3c0-4 .8-7.5 2.3-10.5s3.7-5.3 6.5-6.8 5.9-2.3 9.3-2.3c3.9 0 7.1 1 9.7 2.9 2.6 2 4.5 4.7 5.5 8.3L35 19c-.9-2.8-2.2-4.8-3.9-6.1S27.2 11 24.7 11c-3 0-5.4.7-7.4 2.1s-3.4 3.3-4.2 5.7-1.2 4.9-1.2 7.4c0 3.3.5 6.1 1.4 8.6s2.4 4.3 4.5 5.5 4.2 1.8 6.5 1.8c2.9 0 5.3-.8 7.3-2.5s3.2-4.1 3.9-7.3zM60.5 86.6V48.1h13.3c3 0 5.3.2 6.9.6 2.2.5 4.1 1.4 5.6 2.8 2 1.7 3.6 3.9 4.6 6.6 1 2.7 1.5 5.7 1.5 9.2 0 2.9-.3 5.5-1 7.8s-1.6 4.1-2.6 5.6c-1.1 1.5-2.2 2.6-3.5 3.5-1.3.8-2.8 1.5-4.6 1.9-1.8.4-3.9.7-6.2.7h-14zm5.1-4.6h8.2c2.5 0 4.5-.2 6-.7s2.6-1.1 3.5-2c1.2-1.2 2.1-2.8 2.8-4.9.7-2 1-4.5 1-7.4 0-4-.7-7.1-2-9.3-1.3-2.2-2.9-3.6-4.8-4.3-1.4-.5-3.6-.8-6.6-.8h-8.1V82z" class="st0"/>
  <path fill="none" stroke="#000" stroke-miterlimit="10" stroke-width="4" d="M29.2 90.2l30.9-71.3"/>
  <circle cx="90.3" cy="41.6" r="4.8"/>
  <circle cx="8.7" cy="85.4" r="4.8"/>
  <path d="M0 93.8h100v6.2H0z"/>
</svg>
